<svg width="16" height="17" viewBox="0 0 16 17" fill="none" xmlns="http://www.w3.org/2000/svg">
<path d="M8.00179 3.98509C5.73162 3.98509 3.9005 5.82736 3.9005 8.11133C3.9005 10.3953 5.73162 12.2376 8.00179 12.2376C10.2719 12.2376 12.1031 10.3953 12.1031 8.11133C12.1031 5.82736 10.2719 3.98509 8.00179 3.98509ZM8.00179 10.7939C6.53475 10.7939 5.33542 9.59088 5.33542 8.11133C5.33542 6.63177 6.53118 5.42874 8.00179 5.42874C9.47239 5.42874 10.6682 6.63177 10.6682 8.11133C10.6682 9.59088 9.46882 10.7939 8.00179 10.7939ZM13.2274 3.81631C13.2274 4.35139 12.7991 4.77874 12.2708 4.77874C11.739 4.77874 11.3142 4.3478 11.3142 3.81631C11.3142 3.28482 11.7426 2.85388 12.2708 2.85388C12.7991 2.85388 13.2274 3.28482 13.2274 3.81631ZM15.9438 4.7931C15.8831 3.50388 15.5904 2.36189 14.6516 1.42101C13.7165 0.480129 12.5814 0.185655 11.2999 0.121014C9.97925 0.0455996 6.02075 0.0455996 4.70006 0.121014C3.4222 0.182063 2.28712 0.476538 1.34835 1.41742C0.409593 2.3583 0.120468 3.50029 0.0562186 4.78951C-0.0187395 6.11824 -0.0187395 10.1008 0.0562186 11.4296C0.116899 12.7188 0.409593 13.8608 1.34835 14.8016C2.28712 15.7425 3.41863 16.037 4.70006 16.1016C6.02075 16.1771 9.97925 16.1771 11.2999 16.1016C12.5814 16.0406 13.7165 15.7461 14.6516 14.8016C15.5868 13.8608 15.8795 12.7188 15.9438 11.4296C16.0187 10.1008 16.0187 6.12183 15.9438 4.7931ZM14.2376 12.8552C13.9592 13.5591 13.4202 14.1014 12.717 14.3851C11.664 14.8052 9.16542 14.7083 8.00179 14.7083C6.83815 14.7083 4.33597 14.8016 3.28656 14.3851C2.58695 14.105 2.04796 13.5627 1.76598 12.8552C1.34835 11.7959 1.44473 9.28204 1.44473 8.11133C1.44473 6.94061 1.35192 4.42321 1.76598 3.36742C2.04439 2.66355 2.58338 2.12129 3.28656 1.83758C4.33954 1.41742 6.83815 1.51438 8.00179 1.51438C9.16542 1.51438 11.6676 1.42101 12.717 1.83758C13.4166 2.11769 13.9556 2.65996 14.2376 3.36742C14.6552 4.42681 14.5588 6.94061 14.5588 8.11133C14.5588 9.28204 14.6552 11.7994 14.2376 12.8552Z" fill="white"/>
</svg>
