<svg width="24" height="15" viewBox="0 0 24 15" fill="none" xmlns="http://www.w3.org/2000/svg">
<path d="M23.3571 2.23404H0.642857C0.287839 2.23404 0 2.01969 0 1.75532V0.478723C0 0.214348 0.287839 0 0.642857 0H23.3571C23.7122 0 24 0.214348 24 0.478723V1.75532C24 2.01969 23.7122 2.23404 23.3571 2.23404ZM23.3571 8.61702H0.642857C0.287839 8.61702 0 8.40267 0 8.1383V6.8617C0 6.59733 0.287839 6.38298 0.642857 6.38298H23.3571C23.7122 6.38298 24 6.59733 24 6.8617V8.1383C24 8.40267 23.7122 8.61702 23.3571 8.61702ZM23.3571 15H0.642857C0.287839 15 0 14.7857 0 14.5213V13.2447C0 12.9803 0.287839 12.766 0.642857 12.766H23.3571C23.7122 12.766 24 12.9803 24 13.2447V14.5213C24 14.7857 23.7122 15 23.3571 15Z" fill="#9A9D9F"/>
</svg>
