<svg width="19" height="19" viewBox="0 0 19 19" fill="none" xmlns="http://www.w3.org/2000/svg">
<path d="M18.8701 17.4006L14.365 12.8955C14.2797 12.8102 14.1684 12.7656 14.0496 12.7656H13.5598C14.7287 11.4111 15.4375 9.64844 15.4375 7.71875C15.4375 3.45488 11.9826 0 7.71875 0C3.45488 0 0 3.45488 0 7.71875C0 11.9826 3.45488 15.4375 7.71875 15.4375C9.64844 15.4375 11.4111 14.7287 12.7656 13.5598V14.0496C12.7656 14.1684 12.8139 14.2797 12.8955 14.365L17.4006 18.8701C17.575 19.0445 17.857 19.0445 18.0314 18.8701L18.8701 18.0314C19.0445 17.857 19.0445 17.575 18.8701 17.4006ZM7.71875 13.6562C4.43828 13.6562 1.78125 10.9992 1.78125 7.71875C1.78125 4.43828 4.43828 1.78125 7.71875 1.78125C10.9992 1.78125 13.6562 4.43828 13.6562 7.71875C13.6562 10.9992 10.9992 13.6562 7.71875 13.6562Z" fill="#9A9D9F"/>
</svg>
