<svg width="20" height="22" viewBox="0 0 20 22" fill="none" xmlns="http://www.w3.org/2000/svg">
<path d="M19.5554 18.4722L15.4328 14.3255C16.4263 12.8829 16.9233 11.2747 16.9233 9.50173C16.9233 8.34919 16.7009 7.2469 16.256 6.19514C15.8114 5.14321 15.2104 4.23652 14.4532 3.47486C13.696 2.7132 12.7947 2.10864 11.7491 1.6614C10.7032 1.21402 9.60742 0.990356 8.4616 0.990356C7.31587 0.990356 6.22002 1.21402 5.1744 1.6614C4.12861 2.10864 3.22721 2.7132 2.47 3.47486C1.7127 4.23652 1.11176 5.14338 0.667081 6.19514C0.22236 7.24703 0 8.34919 0 9.50173C0 10.6542 0.22236 11.7561 0.667081 12.8082C1.11172 13.8599 1.7127 14.7665 2.47 15.5281C3.22721 16.29 4.12878 16.8944 5.1744 17.3419C6.22015 17.7891 7.31587 18.0128 8.4616 18.0128C10.2246 18.0128 11.8232 17.5128 13.2575 16.5135L17.38 20.6481C17.6685 20.9543 18.0286 21.1075 18.4617 21.1075C18.8783 21.1075 19.2391 20.9544 19.5433 20.6481C19.8477 20.342 20 19.9793 20 19.5602C20.0001 19.1333 19.8519 18.7704 19.5554 18.4722ZM12.2657 13.3278C11.2121 14.3878 9.94412 14.9178 8.4616 14.9178C6.97934 14.9178 5.7114 14.3877 4.65765 13.3278C3.6039 12.2679 3.07705 10.9927 3.07705 9.50148C3.07705 8.01051 3.60403 6.73491 4.65765 5.67519C5.71119 4.61521 6.97934 4.08531 8.4616 4.08531C9.94395 4.08531 11.2119 4.61542 12.2657 5.67519C13.3196 6.73491 13.8464 8.01051 13.8464 9.50148C13.8464 10.9927 13.3194 12.2679 12.2657 13.3278Z" fill="white"/>
</svg>
