<svg width="16" height="17" viewBox="0 0 16 17" fill="none" xmlns="http://www.w3.org/2000/svg">
<path d="M8 0.0644531C3.58065 0.0644531 0 3.66608 0 8.11133C0 12.5566 3.58065 16.1582 8 16.1582C12.4194 16.1582 16 12.5566 16 8.11133C16 3.66608 12.4194 0.0644531 8 0.0644531ZM11.929 5.57721L10.6161 11.8006C10.5194 12.2418 10.2581 12.3489 9.89355 12.1413L7.89355 10.6584L6.92903 11.5929C6.82258 11.7 6.73226 11.7908 6.52581 11.7908L6.66774 9.74342L10.3742 6.37541C10.5355 6.23264 10.3387 6.15153 10.1258 6.29429L5.54516 9.19506L3.57097 8.57532C3.14194 8.43904 3.13226 8.14378 3.66129 7.93611L11.3742 4.94449C11.7323 4.8147 12.0452 5.0321 11.929 5.57721Z" fill="white"/>
</svg>
