<svg width="22" height="13" viewBox="0 0 22 13" fill="none" xmlns="http://www.w3.org/2000/svg">
<path d="M21.4986 0.89469C21.6497 0.423193 21.4986 0.0761719 20.7716 0.0761719H18.3661C17.7535 0.0761719 17.4717 0.374158 17.3206 0.706091C17.3206 0.706091 16.0954 3.4634 14.3637 5.25132C13.8042 5.76808 13.5469 5.93405 13.2406 5.93405C13.0895 5.93405 12.8567 5.76808 12.8567 5.29658V0.89469C12.8567 0.328894 12.6852 0.0761719 12.1787 0.0761719H8.39687C8.01297 0.0761719 7.78426 0.34021 7.78426 0.585388C7.78426 1.12101 8.65009 1.24548 8.73993 2.75427V6.02834C8.73993 6.74502 8.60108 6.87704 8.29477 6.87704C7.47795 6.87704 5.49309 4.10841 4.31687 0.939954C4.08 0.325122 3.84721 0.0761719 3.23051 0.0761719H0.824984C0.138859 0.0761719 0 0.374158 0 0.706091C0 1.29452 0.816816 4.2178 3.80228 8.0803C5.79123 10.7169 8.59291 12.1465 11.1414 12.1465C12.6729 12.1465 12.8608 11.8296 12.8608 11.2827C12.8608 8.76303 12.7219 8.52539 13.4897 8.52539C13.845 8.52539 14.4577 8.69136 15.8871 9.96251C17.5207 11.4713 17.7903 12.1465 18.7051 12.1465H21.1106C21.7967 12.1465 22.1439 11.8296 21.9438 11.2035C21.4864 9.88707 18.3947 7.1788 18.2558 6.99774C17.9005 6.57528 18.0026 6.38668 18.2558 6.00948C18.2599 6.00571 21.1964 2.18848 21.4986 0.89469Z" fill="white"/>
</svg>
